<svg width="20" height="16" viewBox="0 0 20 16" fill="none" xmlns="http://www.w3.org/2000/svg">
<path fill-rule="evenodd" clip-rule="evenodd" d="M9.68483 12.424C9.78608 12.4752 9.89446 12.4978 9.99967 12.4967C10.1049 12.4978 10.2133 12.4752 10.3145 12.424L11.2133 11.9699C12.9759 11.0793 15.1317 10.9338 17.0402 11.5767C17.7442 11.8138 18.5101 11.3772 18.5101 10.7387V2.96608C18.5101 2.58078 18.2315 2.2343 17.8067 2.0912C15.3485 1.26318 12.572 1.45053 10.3017 2.59761L9.99967 2.75022L9.69765 2.59761C7.42737 1.45053 4.65083 1.26318 2.19264 2.0912C1.76782 2.2343 1.48926 2.58078 1.48926 2.96608V10.7387C1.48926 11.3772 2.25511 11.8138 2.95916 11.5767C4.86771 10.9338 7.02342 11.0793 8.78605 11.9699L9.68483 12.424ZM2.67676 3.0053V10.5965C4.89009 9.89783 7.36484 10.0856 9.39706 11.1124L9.40592 11.1169V3.61641L9.08665 3.4551C7.14789 2.47551 4.77969 2.30995 2.67676 3.0053ZM10.6023 11.1124L10.5934 11.1169V3.61641L10.9127 3.4551C12.8515 2.47551 15.2197 2.30995 17.3226 3.0053V10.5965C15.1093 9.89783 12.6345 10.0856 10.6023 11.1124Z" fill="white"/>
<path d="M7.84293 12.6949C6.24071 11.9078 4.25948 11.9078 2.65726 12.6949L2.57592 12.7348C2.29267 12.874 2.197 13.1801 2.36223 13.4186C2.52746 13.6572 2.89101 13.7378 3.17426 13.5986L3.25561 13.5586C4.48808 12.9532 6.0121 12.9532 7.24458 13.5586L8.10533 13.9815C9.27619 14.5566 10.724 14.5566 11.8949 13.9815L12.7556 13.5586C13.9881 12.9532 15.5121 12.9532 16.7446 13.5586L16.8259 13.5986C17.1092 13.7378 17.4727 13.6572 17.6379 13.4186C17.8032 13.1801 17.7075 12.874 17.4243 12.7348L17.343 12.6949C15.7407 11.9078 13.7595 11.9078 12.1572 12.6949L11.2965 13.1177C10.4954 13.5112 9.50475 13.5112 8.70366 13.1177L7.84293 12.6949Z" fill="white"/>
</svg>
