<svg width="25" height="24" viewBox="0 0 25 24" fill="none" xmlns="http://www.w3.org/2000/svg">
<path d="M10.5439 9C10.5439 7.89543 11.4393 7 12.5439 7C13.6485 7 14.5439 7.89543 14.5439 9C14.5439 10.1046 13.6485 11 12.5439 11C11.4393 11 10.5439 10.1046 10.5439 9Z" fill="white"/>
<path d="M11.5439 12.5C9.8871 12.5 8.54395 13.8432 8.54395 15.5C8.54395 16.0523 8.99167 16.5 9.54395 16.5H15.5439C16.0962 16.5 16.5439 16.0523 16.5439 15.5C16.5439 13.8432 15.2008 12.5 13.5439 12.5H11.5439Z" fill="white"/>
<path fill-rule="evenodd" clip-rule="evenodd" d="M8.08741 2.88264C11.0432 2.4579 14.0446 2.4579 17.0004 2.88264C18.4659 3.09323 19.595 4.28262 19.7291 5.75708L19.8561 7.15281C20.1494 10.3775 20.1494 13.6223 19.8561 16.8471L19.7291 18.2428C19.595 19.7173 18.4659 20.9067 17.0004 21.1172C14.0446 21.542 11.0432 21.542 8.08741 21.1172C6.62192 20.9067 5.49282 19.7173 5.3587 18.2428L5.23173 16.8471C4.93838 13.6223 4.93838 10.3775 5.23173 7.15281L5.3587 5.75708C5.49282 4.28262 6.62192 3.09323 8.08741 2.88264ZM16.787 4.36739C13.9727 3.96299 11.1151 3.96299 8.30076 4.36739C7.52297 4.47916 6.92371 5.11042 6.85253 5.89297L6.72556 7.2887C6.44043 10.423 6.44043 13.5768 6.72556 16.7112L6.85253 18.1069C6.92372 18.8895 7.52297 19.5207 8.30076 19.6325C11.1151 20.0369 13.9727 20.0369 16.787 19.6325C17.5648 19.5207 18.1641 18.8895 18.2353 18.1069L18.3622 16.7112C18.6474 13.5768 18.6474 10.423 18.3622 7.2887L18.2353 5.89297C18.1641 5.11042 17.5648 4.47916 16.787 4.36739Z" fill="white"/>
</svg>
