<svg width="33" height="32" viewBox="0 0 33 32" fill="none" xmlns="http://www.w3.org/2000/svg">
<path d="M12.1667 4.33337C7.93248 4.33337 4.5 7.76585 4.5 12V21.4759C4.5 22.0282 4.94772 22.4759 5.5 22.4759C6.05228 22.4759 6.5 22.0282 6.5 21.4759V12C6.5 8.87043 9.03705 6.33337 12.1667 6.33337H21.5172C22.0695 6.33337 22.5172 5.88565 22.5172 5.33337C22.5172 4.78109 22.0695 4.33337 21.5172 4.33337H12.1667Z" fill="#8D08F5" fill-opacity="0.5"/>
<path fill-rule="evenodd" clip-rule="evenodd" d="M24.7031 9.05765C20.3818 8.57469 15.9509 8.57469 11.6296 9.05765C10.3986 9.19524 9.40937 10.164 9.26426 11.4046C8.75176 15.7866 8.75176 20.2133 9.26426 24.5953C9.40937 25.836 10.3986 26.8046 11.6296 26.9422C15.9509 27.4253 20.3818 27.4253 24.7031 26.9422C25.9341 26.8046 26.9234 25.836 27.0685 24.5953C27.581 20.2133 27.581 15.7866 27.0685 11.4046C26.9234 10.164 25.9341 9.19524 24.7031 9.05765ZM11.8518 11.0453C16.0254 10.5788 20.3073 10.5788 24.4809 11.0453C24.7974 11.0806 25.0462 11.3309 25.0819 11.6369C25.5765 15.8645 25.5765 20.1354 25.0819 24.363C25.0462 24.669 24.7974 24.9193 24.4809 24.9546C20.3073 25.4212 16.0254 25.4212 11.8518 24.9546C11.5353 24.9193 11.2865 24.669 11.2507 24.363C10.7563 20.1354 10.7563 15.8645 11.2507 11.6369C11.2865 11.3309 11.5353 11.0806 11.8518 11.0453Z" fill="#8D08F5" fill-opacity="0.5"/>
</svg>
