<svg width="25" height="24" viewBox="0 0 25 24" fill="none" xmlns="http://www.w3.org/2000/svg">
<path d="M9.54395 3.25C6.36831 3.25 3.79395 5.82436 3.79395 9V16.1069C3.79395 16.5211 4.12974 16.8569 4.54395 16.8569C4.95816 16.8569 5.29395 16.5211 5.29395 16.1069V9C5.29395 6.65279 7.19674 4.75 9.54395 4.75H16.5568C16.971 4.75 17.3068 4.41421 17.3068 4C17.3068 3.58579 16.971 3.25 16.5568 3.25H9.54395Z" fill="white"/>
<path fill-rule="evenodd" clip-rule="evenodd" d="M18.9465 6.79327C15.7055 6.43105 12.3823 6.43105 9.14143 6.79327C8.21815 6.89646 7.47622 7.62305 7.36739 8.55349C6.98301 11.84 6.98301 15.16 7.36739 18.4465C7.47622 19.377 8.21815 20.1035 9.14143 20.2067C12.3823 20.569 15.7055 20.569 18.9465 20.2067C19.8697 20.1035 20.6117 19.377 20.7205 18.4465C21.1049 15.16 21.1049 11.84 20.7205 8.55349C20.6117 7.62305 19.8697 6.89646 18.9465 6.79327ZM9.30804 8.28399C12.4382 7.93414 15.6496 7.93414 18.7798 8.28399C19.0172 8.31051 19.2038 8.49822 19.2306 8.72774C19.6015 11.8984 19.6015 15.1016 19.2306 18.2723C19.2038 18.5018 19.0172 18.6895 18.7798 18.716C15.6496 19.0659 12.4382 19.0659 9.30804 18.716C9.07069 18.6895 8.88408 18.5018 8.85724 18.2723C8.4864 15.1016 8.4864 11.8984 8.85724 8.72774C8.88408 8.49822 9.07069 8.31051 9.30804 8.28399Z" fill="white"/>
</svg>
