<svg width="37" height="36" viewBox="0 0 37 36" fill="none" xmlns="http://www.w3.org/2000/svg">
<path d="M16.348 22.16C16.5613 22.16 16.7293 22.2213 16.852 22.344C16.98 22.4613 17.044 22.6187 17.044 22.816V24H9.108V23.344C9.108 23.2107 9.13467 23.072 9.188 22.928C9.24667 22.7787 9.33733 22.6453 9.46 22.528L12.972 19.008C13.2653 18.7093 13.5267 18.424 13.756 18.152C13.9907 17.88 14.1853 17.6107 14.34 17.344C14.4947 17.0773 14.612 16.808 14.692 16.536C14.7773 16.2587 14.82 15.968 14.82 15.664C14.82 15.3867 14.78 15.144 14.7 14.936C14.62 14.7227 14.5053 14.544 14.356 14.4C14.212 14.256 14.036 14.1493 13.828 14.08C13.6253 14.0053 13.396 13.968 13.14 13.968C12.9053 13.968 12.6867 14.0027 12.484 14.072C12.2867 14.136 12.1107 14.2293 11.956 14.352C11.8013 14.4693 11.6707 14.608 11.564 14.768C11.4573 14.928 11.3773 15.104 11.324 15.296C11.2333 15.5413 11.116 15.704 10.972 15.784C10.828 15.864 10.62 15.8827 10.348 15.84L9.308 15.656C9.388 15.1013 9.54267 14.616 9.772 14.2C10.0013 13.7787 10.2867 13.4293 10.628 13.152C10.9747 12.8693 11.3693 12.6587 11.812 12.52C12.26 12.376 12.74 12.304 13.252 12.304C13.7853 12.304 14.2733 12.384 14.716 12.544C15.1587 12.6987 15.5373 12.92 15.852 13.208C16.1667 13.496 16.412 13.8427 16.588 14.248C16.764 14.6533 16.852 15.104 16.852 15.6C16.852 16.0267 16.788 16.4213 16.66 16.784C16.5373 17.1467 16.3693 17.4933 16.156 17.824C15.948 18.1547 15.7027 18.4747 15.42 18.784C15.1373 19.0933 14.8413 19.408 14.532 19.728L11.924 22.392C12.1747 22.3173 12.4227 22.2613 12.668 22.224C12.9187 22.1813 13.156 22.16 13.38 22.16H16.348ZM22.4213 22.584C22.7466 22.584 23.0319 22.5387 23.2773 22.448C23.5226 22.352 23.7279 22.2213 23.8933 22.056C24.0639 21.8907 24.1919 21.6933 24.2773 21.464C24.3626 21.2347 24.4053 20.9867 24.4053 20.72C24.4053 20.0853 24.2293 19.6053 23.8773 19.28C23.5253 18.9547 23.0399 18.792 22.4213 18.792C21.8026 18.792 21.3173 18.9547 20.9653 19.28C20.6133 19.6053 20.4373 20.0853 20.4373 20.72C20.4373 20.9867 20.4799 21.2347 20.5653 21.464C20.6506 21.6933 20.7759 21.8907 20.9413 22.056C21.1119 22.2213 21.3199 22.352 21.5653 22.448C21.8106 22.5387 22.0959 22.584 22.4213 22.584ZM22.4213 13.792C22.1279 13.792 21.8746 13.8373 21.6613 13.928C21.4479 14.0187 21.2693 14.1413 21.1253 14.296C20.9866 14.4453 20.8826 14.6187 20.8133 14.816C20.7493 15.0133 20.7173 15.2213 20.7173 15.44C20.7173 15.6693 20.7439 15.8933 20.7973 16.112C20.8559 16.3253 20.9519 16.5173 21.0853 16.688C21.2186 16.8533 21.3946 16.9867 21.6133 17.088C21.8319 17.1893 22.1013 17.24 22.4213 17.24C22.7413 17.24 23.0106 17.1893 23.2293 17.088C23.4479 16.9867 23.6239 16.8533 23.7573 16.688C23.8906 16.5173 23.9839 16.3253 24.0373 16.112C24.0959 15.8933 24.1253 15.6693 24.1253 15.44C24.1253 15.2213 24.0906 15.0133 24.0213 14.816C23.9519 14.6187 23.8479 14.4453 23.7093 14.296C23.5706 14.1413 23.3946 14.0187 23.1813 13.928C22.9679 13.8373 22.7146 13.792 22.4213 13.792ZM24.3733 17.968C25.0773 18.1973 25.5973 18.5493 25.9333 19.024C26.2693 19.4933 26.4373 20.0693 26.4373 20.752C26.4373 21.264 26.3386 21.728 26.1413 22.144C25.9493 22.56 25.6773 22.9147 25.3253 23.208C24.9733 23.5013 24.5493 23.728 24.0533 23.888C23.5626 24.048 23.0186 24.128 22.4213 24.128C21.8239 24.128 21.2773 24.048 20.7813 23.888C20.2906 23.728 19.8693 23.5013 19.5173 23.208C19.1653 22.9147 18.8906 22.56 18.6933 22.144C18.5013 21.728 18.4053 21.264 18.4053 20.752C18.4053 20.0693 18.5733 19.4933 18.9093 19.024C19.2453 18.5493 19.7653 18.1973 20.4693 17.968C19.9093 17.7333 19.4879 17.4 19.2053 16.968C18.9279 16.536 18.7893 16.016 18.7893 15.408C18.7893 14.9707 18.8773 14.5627 19.0533 14.184C19.2346 13.8053 19.4853 13.4773 19.8053 13.2C20.1253 12.9173 20.5066 12.6987 20.9493 12.544C21.3973 12.384 21.8879 12.304 22.4213 12.304C22.9546 12.304 23.4426 12.384 23.8853 12.544C24.3333 12.6987 24.7173 12.9173 25.0373 13.2C25.3573 13.4773 25.6053 13.8053 25.7812 14.184C25.9626 14.5627 26.0533 14.9707 26.0533 15.408C26.0533 16.016 25.9119 16.536 25.6293 16.968C25.3519 17.4 24.9333 17.7333 24.3733 17.968Z" fill="#0E0E2C"/>
<path d="M36.5 18C36.5 27.9411 28.4411 36 18.5 36C8.55887 36 0.5 27.9411 0.5 18C0.5 8.05887 8.55887 0 18.5 0C28.4411 0 36.5 8.05887 36.5 18ZM3.2 18C3.2 26.45 10.05 33.3 18.5 33.3C26.95 33.3 33.8 26.45 33.8 18C33.8 9.55004 26.95 2.7 18.5 2.7C10.05 2.7 3.2 9.55004 3.2 18Z" fill="white"/>
<path d="M17.2728 0.0418843C20.1503 -0.15476 23.0329 0.342956 25.6779 1.49311C28.3229 2.64327 30.6528 4.41219 32.4713 6.65089C34.2898 8.88959 35.5438 11.5325 36.1275 14.3571C36.7112 17.1816 36.6077 20.1051 35.8255 22.8812C35.0434 25.6574 33.6056 28.205 31.6332 30.3094C29.6608 32.4137 27.2116 34.0134 24.4918 34.9735C21.7721 35.9336 18.8614 36.226 16.005 35.8262C13.1486 35.4265 10.4301 34.3461 8.07848 32.6762L9.64171 30.4748C11.6406 31.8942 13.9513 32.8125 16.3793 33.1523C18.8072 33.4921 21.2813 33.2435 23.593 32.4274C25.9048 31.6114 27.9867 30.2517 29.6632 28.4629C31.3397 26.6742 32.5619 24.5088 33.2267 22.1491C33.8915 19.7893 33.9795 17.3044 33.4834 14.9035C32.9872 12.5026 31.9214 10.2562 30.3756 8.35326C28.8299 6.45036 26.8495 4.94678 24.6012 3.96915C22.353 2.99151 19.9028 2.56845 17.4569 2.7356L17.2728 0.0418843Z" fill="#FF6600" fill-opacity="0.5"/>
</svg>
