<svg width="37" height="36" viewBox="0 0 37 36" fill="none" xmlns="http://www.w3.org/2000/svg">
<path d="M14.196 19.64V15.856C14.196 15.4987 14.22 15.104 14.268 14.672L10.676 19.64H14.196ZM17.372 19.64V20.784C17.372 20.8907 17.3373 20.984 17.268 21.064C17.1987 21.1387 17.1 21.176 16.972 21.176H15.916V24H14.196V21.176H9.316C9.18267 21.176 9.06533 21.136 8.964 21.056C8.86267 20.9707 8.79867 20.8667 8.772 20.744L8.564 19.744L14.044 12.424H15.916V19.64H17.372ZM25.6293 22.16C25.8426 22.16 26.0106 22.2213 26.1333 22.344C26.2613 22.4613 26.3253 22.6187 26.3253 22.816V24H18.3893V23.344C18.3893 23.2107 18.4159 23.072 18.4693 22.928C18.5279 22.7787 18.6186 22.6453 18.7413 22.528L22.2533 19.008C22.5466 18.7093 22.8079 18.424 23.0373 18.152C23.2719 17.88 23.4666 17.6107 23.6213 17.344C23.7759 17.0773 23.8933 16.808 23.9733 16.536C24.0586 16.2587 24.1013 15.968 24.1013 15.664C24.1013 15.3867 24.0613 15.144 23.9813 14.936C23.9013 14.7227 23.7866 14.544 23.6373 14.4C23.4933 14.256 23.3173 14.1493 23.1093 14.08C22.9066 14.0053 22.6773 13.968 22.4213 13.968C22.1866 13.968 21.9679 14.0027 21.7653 14.072C21.5679 14.136 21.3919 14.2293 21.2373 14.352C21.0826 14.4693 20.9519 14.608 20.8453 14.768C20.7386 14.928 20.6586 15.104 20.6053 15.296C20.5146 15.5413 20.3973 15.704 20.2533 15.784C20.1093 15.864 19.9013 15.8827 19.6293 15.84L18.5893 15.656C18.6693 15.1013 18.8239 14.616 19.0533 14.2C19.2826 13.7787 19.5679 13.4293 19.9093 13.152C20.2559 12.8693 20.6506 12.6587 21.0933 12.52C21.5413 12.376 22.0213 12.304 22.5333 12.304C23.0666 12.304 23.5546 12.384 23.9973 12.544C24.4399 12.6987 24.8186 12.92 25.1333 13.208C25.4479 13.496 25.6933 13.8427 25.8693 14.248C26.0453 14.6533 26.1333 15.104 26.1333 15.6C26.1333 16.0267 26.0693 16.4213 25.9413 16.784C25.8186 17.1467 25.6506 17.4933 25.4373 17.824C25.2293 18.1547 24.9839 18.4747 24.7013 18.784C24.4186 19.0933 24.1226 19.408 23.8133 19.728L21.2053 22.392C21.4559 22.3173 21.7039 22.2613 21.9493 22.224C22.1999 22.1813 22.4373 22.16 22.6613 22.16H25.6293Z" fill="#0E0E2C"/>
<path d="M36.5 18C36.5 27.9411 28.4411 36 18.5 36C8.55887 36 0.5 27.9411 0.5 18C0.5 8.05887 8.55887 0 18.5 0C28.4411 0 36.5 8.05887 36.5 18ZM3.2 18C3.2 26.45 10.05 33.3 18.5 33.3C26.95 33.3 33.8 26.45 33.8 18C33.8 9.55004 26.95 2.7 18.5 2.7C10.05 2.7 3.2 9.55004 3.2 18Z" fill="white"/>
<path d="M17.2728 0.0418843C20.1503 -0.15476 23.0329 0.342956 25.6779 1.49311C28.3229 2.64327 30.6528 4.41219 32.4713 6.65089C34.2898 8.88959 35.5438 11.5325 36.1275 14.3571C36.7112 17.1816 36.6077 20.1051 35.8255 22.8812C35.0434 25.6574 33.6056 28.205 31.6332 30.3094C29.6608 32.4137 27.2116 34.0134 24.4918 34.9735C21.7721 35.9336 18.8614 36.226 16.005 35.8262C13.1486 35.4265 10.4301 34.3461 8.07848 32.6762L9.64171 30.4748C11.6406 31.8942 13.9513 32.8125 16.3793 33.1523C18.8072 33.4921 21.2813 33.2435 23.593 32.4274C25.9048 31.6114 27.9867 30.2517 29.6632 28.4629C31.3397 26.6742 32.5619 24.5088 33.2267 22.1491C33.8915 19.7893 33.9795 17.3044 33.4834 14.9035C32.9872 12.5026 31.9214 10.2562 30.3756 8.35326C28.8299 6.45036 26.8495 4.94678 24.6012 3.96915C22.353 2.99151 19.9028 2.56845 17.4569 2.7356L17.2728 0.0418843Z" fill="#F23030" fill-opacity="0.5"/>
</svg>
