<svg width="37" height="36" viewBox="0 0 37 36" fill="none" xmlns="http://www.w3.org/2000/svg">
<path d="M16.0145 22.16C16.2278 22.16 16.3958 22.2213 16.5185 22.344C16.6465 22.4613 16.7105 22.6187 16.7105 22.816V24H8.7745V23.344C8.7745 23.2107 8.80117 23.072 8.8545 22.928C8.91317 22.7787 9.00384 22.6453 9.1265 22.528L12.6385 19.008C12.9318 18.7093 13.1932 18.424 13.4225 18.152C13.6572 17.88 13.8518 17.6107 14.0065 17.344C14.1612 17.0773 14.2785 16.808 14.3585 16.536C14.4438 16.2587 14.4865 15.968 14.4865 15.664C14.4865 15.3867 14.4465 15.144 14.3665 14.936C14.2865 14.7227 14.1718 14.544 14.0225 14.4C13.8785 14.256 13.7025 14.1493 13.4945 14.08C13.2918 14.0053 13.0625 13.968 12.8065 13.968C12.5718 13.968 12.3532 14.0027 12.1505 14.072C11.9532 14.136 11.7772 14.2293 11.6225 14.352C11.4678 14.4693 11.3372 14.608 11.2305 14.768C11.1238 14.928 11.0438 15.104 10.9905 15.296C10.8998 15.5413 10.7825 15.704 10.6385 15.784C10.4945 15.864 10.2865 15.8827 10.0145 15.84L8.9745 15.656C9.0545 15.1013 9.20917 14.616 9.4385 14.2C9.66784 13.7787 9.95317 13.4293 10.2945 13.152C10.6412 12.8693 11.0358 12.6587 11.4785 12.52C11.9265 12.376 12.4065 12.304 12.9185 12.304C13.4518 12.304 13.9398 12.384 14.3825 12.544C14.8252 12.6987 15.2038 12.92 15.5185 13.208C15.8332 13.496 16.0785 13.8427 16.2545 14.248C16.4305 14.6533 16.5185 15.104 16.5185 15.6C16.5185 16.0267 16.4545 16.4213 16.3265 16.784C16.2038 17.1467 16.0358 17.4933 15.8225 17.824C15.6145 18.1547 15.3692 18.4747 15.0865 18.784C14.8038 19.0933 14.5078 19.408 14.1985 19.728L11.5905 22.392C11.8412 22.3173 12.0892 22.2613 12.3345 22.224C12.5852 22.1813 12.8225 22.16 13.0465 22.16H16.0145ZM20.6958 16.632C20.9518 16.5787 21.1971 16.5413 21.4318 16.52C21.6664 16.4933 21.8931 16.48 22.1118 16.48C22.7198 16.48 23.2558 16.5707 23.7198 16.752C24.1838 16.9333 24.5731 17.184 24.8878 17.504C25.2024 17.824 25.4398 18.2 25.5998 18.632C25.7598 19.0587 25.8398 19.52 25.8398 20.016C25.8398 20.6293 25.7304 21.1893 25.5118 21.696C25.2984 22.2027 24.9998 22.6373 24.6158 23C24.2318 23.3573 23.7758 23.6347 23.2478 23.832C22.7251 24.0293 22.1544 24.128 21.5358 24.128C21.1731 24.128 20.8291 24.0907 20.5038 24.016C20.1784 23.9413 19.8718 23.8427 19.5838 23.72C19.3011 23.592 19.0371 23.448 18.7918 23.288C18.5518 23.1227 18.3358 22.9493 18.1438 22.768L18.7518 21.928C18.8798 21.7467 19.0478 21.656 19.2558 21.656C19.3891 21.656 19.5251 21.6987 19.6638 21.784C19.8024 21.8693 19.9598 21.9627 20.1358 22.064C20.3171 22.1653 20.5278 22.2587 20.7678 22.344C21.0131 22.4293 21.3064 22.472 21.6478 22.472C22.0104 22.472 22.3304 22.4133 22.6078 22.296C22.8851 22.1787 23.1144 22.016 23.2958 21.808C23.4824 21.5947 23.6211 21.344 23.7118 21.056C23.8078 20.7627 23.8558 20.4453 23.8558 20.104C23.8558 19.4747 23.6718 18.984 23.3038 18.632C22.9411 18.2747 22.4024 18.096 21.6878 18.096C21.1384 18.096 20.5758 18.1973 19.9998 18.4L18.7678 18.048L19.7278 12.432H25.4398V13.272C25.4398 13.5547 25.3518 13.784 25.1758 13.96C24.9998 14.136 24.7011 14.224 24.2798 14.224H21.1038L20.6958 16.632Z" fill="#0E0E2C"/>
<path d="M36.1665 18C36.1665 27.9411 28.1076 36 18.1665 36C8.22538 36 0.166504 27.9411 0.166504 18C0.166504 8.05887 8.22538 0 18.1665 0C28.1076 0 36.1665 8.05887 36.1665 18ZM2.8665 18C2.8665 26.45 9.71655 33.3 18.1665 33.3C26.6165 33.3 33.4665 26.45 33.4665 18C33.4665 9.55004 26.6165 2.7 18.1665 2.7C9.71655 2.7 2.8665 9.55004 2.8665 18Z" fill="white"/>
<path d="M16.9393 0.0418843C20.8925 -0.228269 24.8243 0.813553 28.1251 3.00577C31.4258 5.19799 33.911 8.41809 35.1951 12.1666C36.4792 15.9152 36.4905 19.9827 35.2273 23.7384C33.9641 27.4941 31.4969 30.728 28.2084 32.9385L26.7022 30.6977C29.4974 28.8188 31.5944 26.07 32.6682 22.8776C33.7419 19.6853 33.7323 16.2279 32.6408 13.0417C31.5493 9.85537 29.4369 7.11829 26.6313 5.2549C23.8257 3.39152 20.4836 2.50597 17.1234 2.7356L16.9393 0.0418843Z" fill="#8D08F5" fill-opacity="0.5"/>
</svg>
