<svg width="37" height="36" viewBox="0 0 37 36" fill="none" xmlns="http://www.w3.org/2000/svg">
<path d="M17.1135 22.52V24H10.7135V22.52H13.0575V15.776C13.0575 15.5093 13.0655 15.2347 13.0815 14.952L11.4175 16.344C11.3215 16.4187 11.2255 16.4667 11.1295 16.488C11.0388 16.504 10.9508 16.504 10.8655 16.488C10.7855 16.472 10.7135 16.4453 10.6495 16.408C10.5855 16.3653 10.5375 16.32 10.5055 16.272L9.8815 15.416L13.4095 12.416H15.0335V22.52H17.1135ZM21.3627 16.632C21.6187 16.5787 21.8641 16.5413 22.0987 16.52C22.3334 16.4933 22.5601 16.48 22.7787 16.48C23.3867 16.48 23.9227 16.5707 24.3867 16.752C24.8507 16.9333 25.2401 17.184 25.5547 17.504C25.8694 17.824 26.1067 18.2 26.2667 18.632C26.4267 19.0587 26.5067 19.52 26.5067 20.016C26.5067 20.6293 26.3974 21.1893 26.1787 21.696C25.9654 22.2027 25.6667 22.6373 25.2827 23C24.8987 23.3573 24.4427 23.6347 23.9147 23.832C23.3921 24.0293 22.8214 24.128 22.2027 24.128C21.8401 24.128 21.4961 24.0907 21.1707 24.016C20.8454 23.9413 20.5387 23.8427 20.2507 23.72C19.9681 23.592 19.7041 23.448 19.4587 23.288C19.2187 23.1227 19.0027 22.9493 18.8107 22.768L19.4187 21.928C19.5467 21.7467 19.7147 21.656 19.9227 21.656C20.0561 21.656 20.1921 21.6987 20.3307 21.784C20.4694 21.8693 20.6267 21.9627 20.8027 22.064C20.9841 22.1653 21.1947 22.2587 21.4347 22.344C21.6801 22.4293 21.9734 22.472 22.3147 22.472C22.6774 22.472 22.9974 22.4133 23.2747 22.296C23.5521 22.1787 23.7814 22.016 23.9627 21.808C24.1494 21.5947 24.2881 21.344 24.3787 21.056C24.4747 20.7627 24.5227 20.4453 24.5227 20.104C24.5227 19.4747 24.3387 18.984 23.9707 18.632C23.6081 18.2747 23.0694 18.096 22.3547 18.096C21.8054 18.096 21.2427 18.1973 20.6667 18.4L19.4347 18.048L20.3947 12.432H26.1067V13.272C26.1067 13.5547 26.0187 13.784 25.8427 13.96C25.6667 14.136 25.3681 14.224 24.9467 14.224H21.7707L21.3627 16.632Z" fill="#0E0E2C"/>
<path d="M36.8335 18C36.8335 27.9411 28.7746 36 18.8335 36C8.89237 36 0.833496 27.9411 0.833496 18C0.833496 8.05887 8.89237 0 18.8335 0C28.7746 0 36.8335 8.05887 36.8335 18ZM3.5335 18C3.5335 26.45 10.3835 33.3 18.8335 33.3C27.2835 33.3 34.1335 26.45 34.1335 18C34.1335 9.55004 27.2835 2.7 18.8335 2.7C10.3835 2.7 3.5335 9.55004 3.5335 18Z" fill="white"/>
<path d="M17.6063 0.0418843C20.5241 -0.157513 23.4465 0.357058 26.1207 1.54107C28.7949 2.72508 31.1404 4.54288 32.9541 6.83716C34.7678 9.13144 35.9952 11.8331 36.53 14.7084C37.0648 17.5837 36.8909 20.546 36.0235 23.339L33.445 22.5381C34.1823 20.1641 34.3301 17.6461 33.8755 15.2021C33.4209 12.7581 32.3777 10.4617 30.836 8.51158C29.2943 6.56144 27.3007 5.01632 25.0276 4.00991C22.7546 3.0035 20.2705 2.56611 17.7904 2.7356L17.6063 0.0418843Z" fill="#3DBF91" fill-opacity="0.5"/>
</svg>
