<svg width="19" height="18" viewBox="0 0 19 18" fill="none" xmlns="http://www.w3.org/2000/svg">
<path fill-rule="evenodd" clip-rule="evenodd" d="M11.8849 12.4458C9.23464 14.5685 5.35521 14.4014 2.89842 11.9446C0.262377 9.30856 0.262377 5.0347 2.89842 2.39866C5.53446 -0.237379 9.80834 -0.237379 12.4443 2.39866C14.9011 4.85544 15.0682 8.73486 12.9455 11.3852L18.1012 16.5408C18.3941 16.8337 18.3941 17.3086 18.1012 17.6015C17.8083 17.8944 17.3334 17.8944 17.0405 17.6015L11.8849 12.4458ZM3.95908 10.884C1.90883 8.83366 1.90883 5.50957 3.95908 3.45932C6.00934 1.40907 9.33344 1.40907 11.3837 3.45932C13.4324 5.50807 13.4339 8.82876 11.3882 10.8795C11.3867 10.881 11.3852 10.8824 11.3836 10.884C11.3821 10.8855 11.3806 10.887 11.3792 10.8885C9.32854 12.9342 6.00783 12.9327 3.95908 10.884Z" fill="#0E0E2C"/>
</svg>
